<svg width="35" height="35" viewBox="0 0 35 35" fill="none" xmlns="http://www.w3.org/2000/svg">
    <g filter="url(#filter0_i_0_1)">
    <path d="M0 6.86C0 3.07133 3.07133 0 6.86 0H27.35C31.1387 0 34.21 3.07133 34.21 6.86V27.35C34.21 31.1387 31.1387 34.21 27.35 34.21H4.5C2.01472 34.21 0 32.1953 0 29.71V6.86Z" fill="#F5F8FF"/>
    </g>
    <path d="M15.5375 20.81C15.7615 20.81 15.9295 20.8613 16.0415 20.964C16.1628 21.0667 16.2235 21.2113 16.2235 21.398C16.2235 21.7993 15.9948 22 15.5375 22H10.1335C9.92814 22 9.7648 21.944 9.64347 21.832C9.53147 21.7107 9.47547 21.5613 9.47547 21.384C9.47547 21.1693 9.55947 20.9733 9.72747 20.796L13.0175 17.198C13.4561 16.722 13.7735 16.288 13.9695 15.896C14.1655 15.504 14.2635 15.1167 14.2635 14.734C14.2635 14.2393 14.1188 13.8613 13.8295 13.6C13.5495 13.3293 13.1481 13.194 12.6255 13.194C11.8321 13.194 11.0435 13.4973 10.2595 14.104C10.1568 14.1693 10.0681 14.2207 9.99347 14.258C9.92814 14.286 9.85814 14.3 9.78347 14.3C9.6528 14.3 9.5408 14.2393 9.44747 14.118C9.35414 13.9967 9.30747 13.852 9.30747 13.684C9.30747 13.4507 9.4008 13.264 9.58747 13.124C9.97947 12.788 10.4508 12.522 11.0015 12.326C11.5521 12.1207 12.1075 12.018 12.6675 12.018C13.5915 12.018 14.3241 12.256 14.8655 12.732C15.4161 13.1987 15.6915 13.8333 15.6915 14.636C15.6915 15.2053 15.5655 15.7467 15.3135 16.26C15.0708 16.7733 14.6601 17.3473 14.0815 17.982L11.4355 20.81H15.5375ZM24.054 20.81C24.278 20.81 24.446 20.8613 24.558 20.964C24.67 21.0667 24.726 21.2113 24.726 21.398C24.726 21.7993 24.502 22 24.054 22H19.378C18.9207 22 18.692 21.7993 18.692 21.398C18.692 21.2113 18.748 21.0667 18.86 20.964C18.9813 20.8613 19.154 20.81 19.378 20.81H20.988V13.824L19.546 14.734C19.4527 14.79 19.3593 14.818 19.266 14.818C19.1073 14.818 18.9673 14.748 18.846 14.608C18.734 14.468 18.678 14.3093 18.678 14.132C18.678 13.9173 18.7713 13.7493 18.958 13.628L21.114 12.256C21.3287 12.1253 21.534 12.06 21.73 12.06C21.9353 12.06 22.1033 12.1253 22.234 12.256C22.3647 12.3867 22.43 12.564 22.43 12.788V20.81H24.054Z" fill="#CBD5F7"/>
    <defs>
    <filter id="filter0_i_0_1" x="0" y="0" width="34.21" height="34.21" filterUnits="userSpaceOnUse" color-interpolation-filters="sRGB">
    <feFlood flood-opacity="0" result="BackgroundImageFix"/>
    <feBlend mode="normal" in="SourceGraphic" in2="BackgroundImageFix" result="shape"/>
    <feColorMatrix in="SourceAlpha" type="matrix" values="0 0 0 0 0 0 0 0 0 0 0 0 0 0 0 0 0 0 127 0" result="hardAlpha"/>
    <feOffset/>
    <feGaussianBlur stdDeviation="2.5"/>
    <feComposite in2="hardAlpha" operator="arithmetic" k2="-1" k3="1"/>
    <feColorMatrix type="matrix" values="0 0 0 0 0 0 0 0 0 0 0 0 0 0 0 0 0 0 0.07 0"/>
    <feBlend mode="normal" in2="shape" result="effect1_innerShadow_0_1"/>
    </filter>
    </defs>
    </svg>
    