<svg width="40" height="40" viewBox="0 0 40 40" fill="none" xmlns="http://www.w3.org/2000/svg">
    <g opacity="0.3" filter="url(#filter0_d_0_1)">
    <path d="M2 8.86C2 5.07133 5.07133 2 8.86 2H31.14C34.9287 2 38 5.07133 38 8.86V31.14C38 34.9287 34.9287 38 31.14 38H6.5C4.01472 38 2 35.9853 2 33.5V8.86Z" fill="#537DEF"/>
    </g>
    <path d="M3.5 9.86C3.5 6.34747 6.34747 3.5 9.86 3.5H30.35C33.8625 3.5 36.71 6.34747 36.71 9.86V30.35C36.71 33.8625 33.8625 36.71 30.35 36.71H7.5C5.29086 36.71 3.5 34.9191 3.5 32.71V9.86Z" fill="url(#paint0_linear_0_1)" stroke="#537DEF"/>
    <g filter="url(#filter1_i_0_1)">
    <circle cx="7.5" cy="32.5" r="2.5" fill="url(#paint1_linear_0_1)"/>
    </g>
    <circle cx="7.5" cy="32.5" r="2.475" stroke="black" stroke-opacity="0.1" stroke-width="0.05"/>
    <g filter="url(#filter2_i_0_1)">
    <circle cx="13.5" cy="32.5" r="2.5" fill="url(#paint2_linear_0_1)"/>
    </g>
    <circle cx="13.5" cy="32.5" r="2.475" stroke="black" stroke-opacity="0.1" stroke-width="0.05"/>
    <g filter="url(#filter3_i_0_1)">
    <circle cx="19.5" cy="32.5" r="2.5" fill="url(#paint3_linear_0_1)"/>
    </g>
    <circle cx="19.5" cy="32.5" r="2.475" stroke="black" stroke-opacity="0.1" stroke-width="0.05"/>
    <path d="M18.5443 22.81C18.7683 22.81 18.9363 22.8613 19.0483 22.964C19.1696 23.0667 19.2303 23.2113 19.2303 23.398C19.2303 23.7993 19.0016 24 18.5443 24H13.1403C12.935 24 12.7716 23.944 12.6503 23.832C12.5383 23.7107 12.4823 23.5613 12.4823 23.384C12.4823 23.1693 12.5663 22.9733 12.7343 22.796L16.0243 19.198C16.463 18.722 16.7803 18.288 16.9763 17.896C17.1723 17.504 17.2703 17.1167 17.2703 16.734C17.2703 16.2393 17.1256 15.8613 16.8363 15.6C16.5563 15.3293 16.155 15.194 15.6323 15.194C14.839 15.194 14.0503 15.4973 13.2663 16.104C13.1636 16.1693 13.075 16.2207 13.0003 16.258C12.935 16.286 12.865 16.3 12.7903 16.3C12.6596 16.3 12.5476 16.2393 12.4543 16.118C12.361 15.9967 12.3143 15.852 12.3143 15.684C12.3143 15.4507 12.4076 15.264 12.5943 15.124C12.9863 14.788 13.4576 14.522 14.0083 14.326C14.559 14.1207 15.1143 14.018 15.6743 14.018C16.5983 14.018 17.331 14.256 17.8723 14.732C18.423 15.1987 18.6983 15.8333 18.6983 16.636C18.6983 17.2053 18.5723 17.7467 18.3203 18.26C18.0776 18.7733 17.667 19.3473 17.0883 19.982L14.4423 22.81H18.5443ZM24.8208 17.742C25.4088 17.742 25.9362 17.8773 26.4028 18.148C26.8695 18.4093 27.2288 18.778 27.4808 19.254C27.7422 19.73 27.8728 20.276 27.8728 20.892C27.8728 21.508 27.7328 22.0633 27.4528 22.558C27.1728 23.0433 26.7855 23.426 26.2908 23.706C25.8055 23.9767 25.2502 24.112 24.6248 24.112C23.4022 24.112 22.4595 23.6967 21.7968 22.866C21.1435 22.026 20.8168 20.8313 20.8168 19.282C20.8168 18.19 20.9708 17.252 21.2788 16.468C21.5868 15.6747 22.0302 15.068 22.6088 14.648C23.1875 14.228 23.8735 14.018 24.6668 14.018C25.1988 14.018 25.7308 14.116 26.2628 14.312C26.7948 14.508 27.2475 14.7787 27.6208 15.124C27.8075 15.2827 27.9008 15.4693 27.9008 15.684C27.9008 15.852 27.8542 15.9967 27.7608 16.118C27.6675 16.23 27.5555 16.286 27.4248 16.286C27.3408 16.286 27.2615 16.272 27.1868 16.244C27.1215 16.216 27.0422 16.1693 26.9488 16.104C26.1648 15.4973 25.4182 15.194 24.7088 15.194C23.9342 15.194 23.3322 15.5533 22.9028 16.272C22.4735 16.9813 22.2588 17.9753 22.2588 19.254V19.282C22.4642 18.806 22.7955 18.4327 23.2528 18.162C23.7195 17.882 24.2422 17.742 24.8208 17.742ZM24.5548 22.936C25.1335 22.936 25.5955 22.754 25.9408 22.39C26.2955 22.0167 26.4728 21.5267 26.4728 20.92C26.4728 20.3227 26.2955 19.842 25.9408 19.478C25.5955 19.1047 25.1335 18.918 24.5548 18.918C23.9668 18.918 23.4862 19.1047 23.1128 19.478C22.7488 19.842 22.5668 20.3227 22.5668 20.92C22.5668 21.5267 22.7488 22.0167 23.1128 22.39C23.4768 22.754 23.9575 22.936 24.5548 22.936Z" fill="white"/>
    <defs>
    <filter id="filter0_d_0_1" x="0" y="0" width="40" height="40" filterUnits="userSpaceOnUse" color-interpolation-filters="sRGB">
    <feFlood flood-opacity="0" result="BackgroundImageFix"/>
    <feColorMatrix in="SourceAlpha" type="matrix" values="0 0 0 0 0 0 0 0 0 0 0 0 0 0 0 0 0 0 127 0" result="hardAlpha"/>
    <feOffset/>
    <feGaussianBlur stdDeviation="1"/>
    <feColorMatrix type="matrix" values="0 0 0 0 0.258824 0 0 0 0 0.521569 0 0 0 0 0.956863 0 0 0 1 0"/>
    <feBlend mode="normal" in2="BackgroundImageFix" result="effect1_dropShadow_0_1"/>
    <feBlend mode="normal" in="SourceGraphic" in2="effect1_dropShadow_0_1" result="shape"/>
    </filter>
    <filter id="filter1_i_0_1" x="5" y="30" width="5" height="5" filterUnits="userSpaceOnUse" color-interpolation-filters="sRGB">
    <feFlood flood-opacity="0" result="BackgroundImageFix"/>
    <feBlend mode="normal" in="SourceGraphic" in2="BackgroundImageFix" result="shape"/>
    <feColorMatrix in="SourceAlpha" type="matrix" values="0 0 0 0 0 0 0 0 0 0 0 0 0 0 0 0 0 0 127 0" result="hardAlpha"/>
    <feOffset/>
    <feGaussianBlur stdDeviation="0.5"/>
    <feComposite in2="hardAlpha" operator="arithmetic" k2="-1" k3="1"/>
    <feColorMatrix type="matrix" values="0 0 0 0 0 0 0 0 0 0 0 0 0 0 0 0 0 0 0.2 0"/>
    <feBlend mode="normal" in2="shape" result="effect1_innerShadow_0_1"/>
    </filter>
    <filter id="filter2_i_0_1" x="11" y="30" width="5" height="5" filterUnits="userSpaceOnUse" color-interpolation-filters="sRGB">
    <feFlood flood-opacity="0" result="BackgroundImageFix"/>
    <feBlend mode="normal" in="SourceGraphic" in2="BackgroundImageFix" result="shape"/>
    <feColorMatrix in="SourceAlpha" type="matrix" values="0 0 0 0 0 0 0 0 0 0 0 0 0 0 0 0 0 0 127 0" result="hardAlpha"/>
    <feOffset/>
    <feGaussianBlur stdDeviation="0.5"/>
    <feComposite in2="hardAlpha" operator="arithmetic" k2="-1" k3="1"/>
    <feColorMatrix type="matrix" values="0 0 0 0 0 0 0 0 0 0 0 0 0 0 0 0 0 0 0.2 0"/>
    <feBlend mode="normal" in2="shape" result="effect1_innerShadow_0_1"/>
    </filter>
    <filter id="filter3_i_0_1" x="17" y="30" width="5" height="5" filterUnits="userSpaceOnUse" color-interpolation-filters="sRGB">
    <feFlood flood-opacity="0" result="BackgroundImageFix"/>
    <feBlend mode="normal" in="SourceGraphic" in2="BackgroundImageFix" result="shape"/>
    <feColorMatrix in="SourceAlpha" type="matrix" values="0 0 0 0 0 0 0 0 0 0 0 0 0 0 0 0 0 0 127 0" result="hardAlpha"/>
    <feOffset/>
    <feGaussianBlur stdDeviation="0.5"/>
    <feComposite in2="hardAlpha" operator="arithmetic" k2="-1" k3="1"/>
    <feColorMatrix type="matrix" values="0 0 0 0 0 0 0 0 0 0 0 0 0 0 0 0 0 0 0.2 0"/>
    <feBlend mode="normal" in2="shape" result="effect1_innerShadow_0_1"/>
    </filter>
    <linearGradient id="paint0_linear_0_1" x1="20.105" y1="3" x2="20.105" y2="37.21" gradientUnits="userSpaceOnUse">
    <stop stop-color="#8BF7D1"/>
    <stop offset="1" stop-color="#46C895"/>
    </linearGradient>
    <linearGradient id="paint1_linear_0_1" x1="7.5" y1="30" x2="7.5" y2="35" gradientUnits="userSpaceOnUse">
    <stop stop-color="#8BF7D1"/>
    <stop offset="1" stop-color="#46C895"/>
    </linearGradient>
    <linearGradient id="paint2_linear_0_1" x1="13.5" y1="30" x2="13.5" y2="35" gradientUnits="userSpaceOnUse">
    <stop stop-color="#6ADAA0"/>
    <stop offset="1" stop-color="#2DA467"/>
    </linearGradient>
    <linearGradient id="paint3_linear_0_1" x1="19.5" y1="30" x2="19.5" y2="35" gradientUnits="userSpaceOnUse">
    <stop stop-color="#FFEB9C"/>
    <stop offset="1" stop-color="#FFC74A"/>
    </linearGradient>
    </defs>
    </svg>
    