<svg width="51" height="17" viewBox="0 0 51 17" fill="none" xmlns="http://www.w3.org/2000/svg">
    <path d="M11.1977 10.3767H10.4654L7.68425 6.11964V10.3767H6.95197V4.85238H7.68425L10.473 9.12843V4.85238H11.1977V10.3767ZM12.282 8.28612C12.282 7.88394 12.3604 7.52222 12.5173 7.20098C12.6766 6.87974 12.8967 6.63185 13.1775 6.45732C13.4608 6.28279 13.7833 6.19552 14.145 6.19552C14.704 6.19552 15.1555 6.38903 15.4995 6.77603C15.846 7.16304 16.0193 7.67779 16.0193 8.32027V8.3696C16.0193 8.76925 15.9422 9.12843 15.7879 9.44715C15.6361 9.76333 15.4173 10.01 15.1315 10.187C14.8482 10.3641 14.5219 10.4526 14.1526 10.4526C13.5961 10.4526 13.1446 10.2591 12.798 9.8721C12.454 9.48509 12.282 8.97287 12.282 8.33545V8.28612ZM12.9878 8.3696C12.9878 8.8249 13.0927 9.19041 13.3027 9.46612C13.5151 9.74183 13.7984 9.87968 14.1526 9.87968C14.5092 9.87968 14.7925 9.74056 15.0025 9.46232C15.2124 9.18155 15.3174 8.78949 15.3174 8.28612C15.3174 7.83588 15.2099 7.47164 14.9949 7.19339C14.7824 6.91262 14.4991 6.77224 14.145 6.77224C13.7984 6.77224 13.5189 6.91009 13.3065 7.18581C13.094 7.46152 12.9878 7.85611 12.9878 8.3696ZM17.9384 5.27733V6.27141H18.7048V6.81398H17.9384V9.35988C17.9384 9.5243 17.9725 9.64824 18.0408 9.73171C18.1091 9.81265 18.2255 9.85313 18.3899 9.85313C18.4708 9.85313 18.5821 9.83795 18.7238 9.8076V10.3767C18.5391 10.4273 18.3595 10.4526 18.185 10.4526C17.8714 10.4526 17.6349 10.3578 17.4755 10.168C17.3161 9.97833 17.2365 9.70895 17.2365 9.35988V6.81398H16.489V6.27141H17.2365V5.27733H17.9384ZM24.0189 9.28779C24.0189 9.09808 23.9468 8.95137 23.8026 8.84766C23.661 8.74143 23.4118 8.65037 23.0552 8.57448C22.7011 8.4986 22.419 8.40754 22.2091 8.3013C22.0017 8.19506 21.8474 8.06859 21.7462 7.92188C21.6475 7.77517 21.5982 7.60064 21.5982 7.39828C21.5982 7.06186 21.7399 6.7773 22.0232 6.54459C22.309 6.31188 22.6732 6.19552 23.1159 6.19552C23.5813 6.19552 23.9582 6.31567 24.2466 6.55597C24.5375 6.79627 24.6829 7.1036 24.6829 7.47796H23.9772C23.9772 7.28572 23.895 7.12004 23.7306 6.98092C23.5687 6.8418 23.3638 6.77224 23.1159 6.77224C22.8604 6.77224 22.6606 6.82789 22.5164 6.93918C22.3722 7.05048 22.3001 7.19592 22.3001 7.37552C22.3001 7.54499 22.3672 7.67273 22.5012 7.75873C22.6353 7.84473 22.8769 7.92694 23.2259 8.00535C23.5775 8.08377 23.8621 8.17736 24.0796 8.28612C24.2972 8.39489 24.4578 8.52642 24.5615 8.68072C24.6677 8.83249 24.7208 9.0184 24.7208 9.23847C24.7208 9.60524 24.5741 9.89992 24.2807 10.1225C23.9873 10.3426 23.6066 10.4526 23.1387 10.4526C22.8098 10.4526 22.5189 10.3944 22.266 10.2781C22.013 10.1617 21.8145 9.99983 21.6703 9.79242C21.5287 9.58247 21.4578 9.35609 21.4578 9.11326H22.1598C22.1724 9.3485 22.266 9.53568 22.4405 9.6748C22.6176 9.81139 22.8503 9.87968 23.1387 9.87968C23.4043 9.87968 23.6167 9.82657 23.7761 9.72033C23.938 9.61156 24.0189 9.46738 24.0189 9.28779ZM26.4236 6.76844C26.7348 6.3865 27.1395 6.19552 27.6378 6.19552C28.5054 6.19552 28.943 6.68497 28.9506 7.66387V10.3767H28.2487V7.66008C28.2461 7.36413 28.1778 7.14533 28.0438 7.00368C27.9122 6.86204 27.7061 6.79121 27.4253 6.79121C27.1977 6.79121 26.9978 6.85192 26.8258 6.97333C26.6538 7.09475 26.5198 7.2541 26.4236 7.4514V10.3767H25.7217V4.54884H26.4236V6.76844ZM32.6226 10.3767C32.5821 10.2958 32.5492 10.1516 32.5239 9.94419C32.1976 10.2831 31.8081 10.4526 31.3553 10.4526C30.9506 10.4526 30.618 10.3388 30.3574 10.1111C30.0994 9.88095 29.9704 9.59006 29.9704 9.23847C29.9704 8.81099 30.1323 8.47963 30.4561 8.24439C30.7824 8.00662 31.2402 7.88773 31.8296 7.88773H32.5125V7.56523C32.5125 7.31987 32.4392 7.1251 32.2925 6.98092C32.1458 6.83421 31.9295 6.76086 31.6437 6.76086C31.3933 6.76086 31.1833 6.82409 31.0138 6.95057C30.8444 7.07704 30.7596 7.23007 30.7596 7.40966H30.0539C30.0539 7.20478 30.126 7.00748 30.2702 6.81777C30.4169 6.62553 30.6142 6.47376 30.8621 6.36247C31.1125 6.25117 31.3869 6.19552 31.6854 6.19552C32.1584 6.19552 32.529 6.31441 32.7971 6.55218C33.0652 6.78742 33.2044 7.11245 33.2145 7.52728V9.41679C33.2145 9.79368 33.2625 10.0934 33.3586 10.316V10.3767H32.6226ZM31.4578 9.84174C31.6778 9.84174 31.8865 9.78483 32.0838 9.671C32.2811 9.55718 32.424 9.4092 32.5125 9.22708V8.38477H31.9624C31.1024 8.38477 30.6724 8.63645 30.6724 9.13982C30.6724 9.35988 30.7457 9.53188 30.8924 9.65583C31.0391 9.77977 31.2276 9.84174 31.4578 9.84174ZM36.3856 6.90124C36.2794 6.88354 36.1643 6.87468 36.0404 6.87468C35.58 6.87468 35.2676 7.07072 35.1032 7.46278V10.3767H34.4013V6.27141H35.0842L35.0956 6.74568C35.3258 6.37891 35.6521 6.19552 36.0745 6.19552C36.2111 6.19552 36.3148 6.21323 36.3856 6.24864V6.90124ZM38.7486 10.4526C38.1921 10.4526 37.7394 10.2705 37.3903 9.90624C37.0412 9.53947 36.8667 9.05002 36.8667 8.43789V8.30889C36.8667 7.90164 36.9439 7.53867 37.0982 7.21995C37.255 6.89871 37.4725 6.6483 37.7508 6.4687C38.0315 6.28658 38.3351 6.19552 38.6614 6.19552C39.1951 6.19552 39.6099 6.37132 39.9059 6.72291C40.2018 7.07451 40.3498 7.57787 40.3498 8.233V8.52516H37.5686C37.5788 8.92987 37.6964 9.25744 37.9215 9.50785C38.1491 9.75574 38.4375 9.87968 38.7866 9.87968C39.0345 9.87968 39.2444 9.8291 39.4164 9.72792C39.5884 9.62674 39.7389 9.49268 39.8679 9.32573L40.2967 9.65962C39.9527 10.1883 39.4366 10.4526 38.7486 10.4526ZM38.6614 6.77224C38.3781 6.77224 38.1403 6.87595 37.9481 7.08336C37.7558 7.28825 37.6369 7.57661 37.5914 7.94844H39.6479V7.89532C39.6276 7.53867 39.5315 7.26295 39.3595 7.06819C39.1875 6.87089 38.9548 6.77224 38.6614 6.77224ZM41.0813 8.28992C41.0813 7.66008 41.2305 7.15419 41.529 6.77224C41.8275 6.38776 42.2183 6.19552 42.7014 6.19552C43.182 6.19552 43.5627 6.35994 43.8434 6.68877V4.54884H44.5454V10.3767H43.9004L43.8662 9.9366C43.5854 10.2806 43.1946 10.4526 42.6938 10.4526C42.2183 10.4526 41.83 10.2578 41.529 9.8683C41.2305 9.47876 41.0813 8.97034 41.0813 8.34304V8.28992ZM41.7832 8.3696C41.7832 8.83502 41.8793 9.19926 42.0716 9.46232C42.2638 9.72539 42.5294 9.85692 42.8683 9.85692C43.3135 9.85692 43.6386 9.65709 43.8434 9.25744V7.37172C43.6335 6.98471 43.311 6.79121 42.8759 6.79121C42.5319 6.79121 42.2638 6.92401 42.0716 7.1896C41.8793 7.45519 41.7832 7.84853 41.7832 8.3696Z" fill="#BAC4E7"/>
    <rect x="0.421052" y="0.421052" width="50.1579" height="15.8408" rx="7.92041" stroke="#E6EBFF" stroke-width="0.842103"/>
    </svg>
    