<svg width="71" height="20" viewBox="0 0 71 20" fill="none" xmlns="http://www.w3.org/2000/svg">
    <path d="M10.577 12.219L12.1758 13.4851L11.6141 14.0037L10.0412 12.7548L10.577 12.219ZM12.1542 9.59608V9.99362C12.1542 10.4661 12.0952 10.8895 11.9771 11.264C11.859 11.6385 11.689 11.9569 11.4672 12.219C11.2454 12.4812 10.9789 12.6814 10.6678 12.8197C10.3595 12.9579 10.0138 13.0271 9.63068 13.0271C9.25906 13.0271 8.91769 12.9579 8.60656 12.8197C8.29832 12.6814 8.03041 12.4812 7.80283 12.219C7.57813 11.9569 7.40384 11.6385 7.27997 11.264C7.15609 10.8895 7.09416 10.4661 7.09416 9.99362V9.59608C7.09416 9.12363 7.15465 8.70159 7.27565 8.32997C7.39952 7.95547 7.57381 7.63715 7.79851 7.375C8.02321 7.10996 8.28968 6.90831 8.59792 6.77003C8.90905 6.63176 9.25042 6.56262 9.62204 6.56262C10.0052 6.56262 10.3523 6.63176 10.6634 6.77003C10.9746 6.90831 11.241 7.10996 11.4629 7.375C11.6847 7.63715 11.8546 7.95547 11.9728 8.32997C12.0937 8.70159 12.1542 9.12363 12.1542 9.59608ZM11.3289 9.99362V9.58743C11.3289 9.21293 11.29 8.88164 11.2122 8.59357C11.1373 8.30549 11.0264 8.0635 10.8795 7.86761C10.7326 7.67172 10.554 7.52336 10.3437 7.42253C10.1334 7.3217 9.89283 7.27129 9.62204 7.27129C9.36565 7.27129 9.13231 7.3217 8.92201 7.42253C8.71459 7.52336 8.53599 7.67172 8.38618 7.86761C8.23638 8.0635 8.12115 8.30549 8.04049 8.59357C7.95983 8.88164 7.9195 9.21293 7.9195 9.58743V9.99362C7.9195 10.371 7.95983 10.7052 8.04049 10.9961C8.12115 11.2842 8.23638 11.5276 8.38618 11.7264C8.53887 11.9223 8.72036 12.0707 8.93065 12.1715C9.14095 12.2723 9.37429 12.3227 9.63068 12.3227C9.90147 12.3227 10.142 12.2723 10.3523 12.1715C10.5626 12.0707 10.7398 11.9223 10.8838 11.7264C11.0307 11.5276 11.1416 11.2842 11.2165 10.9961C11.2914 10.7052 11.3289 10.371 11.3289 9.99362ZM16.2801 11.8604V8.26516H17.0838V12.9407H16.319L16.2801 11.8604ZM16.4313 10.8751L16.764 10.8665C16.764 11.1776 16.7309 11.4657 16.6646 11.7307C16.6013 11.9929 16.4976 12.2205 16.3535 12.4135C16.2095 12.6065 16.0208 12.7577 15.7874 12.8672C15.5541 12.9738 15.2703 13.0271 14.9362 13.0271C14.7086 13.0271 14.4997 12.994 14.3096 12.9277C14.1224 12.8614 13.961 12.7592 13.8256 12.6209C13.6902 12.4826 13.5851 12.3026 13.5102 12.0807C13.4382 11.8589 13.4022 11.5925 13.4022 11.2813V8.26516H14.2016V11.29C14.2016 11.5003 14.2246 11.6746 14.2707 11.8128C14.3197 11.9482 14.3845 12.0563 14.4652 12.1369C14.5487 12.2147 14.6409 12.2694 14.7417 12.3011C14.8454 12.3328 14.952 12.3487 15.0615 12.3487C15.4014 12.3487 15.6708 12.2838 15.8696 12.1542C16.0683 12.0217 16.2109 11.8445 16.2973 11.6227C16.3866 11.398 16.4313 11.1488 16.4313 10.8751ZM19.2694 8.26516V12.9407H18.4657V8.26516H19.2694ZM18.4052 7.02498C18.4052 6.89535 18.4441 6.78588 18.5219 6.69657C18.6025 6.60727 18.7206 6.56262 18.8762 6.56262C19.0289 6.56262 19.1455 6.60727 19.2262 6.69657C19.3097 6.78588 19.3515 6.89535 19.3515 7.02498C19.3515 7.14886 19.3097 7.25544 19.2262 7.34475C19.1455 7.43117 19.0289 7.47438 18.8762 7.47438C18.7206 7.47438 18.6025 7.43117 18.5219 7.34475C18.4441 7.25544 18.4052 7.14886 18.4052 7.02498ZM22.5224 12.3703C22.7125 12.3703 22.8882 12.3314 23.0495 12.2536C23.2109 12.1758 23.3434 12.0692 23.4471 11.9338C23.5508 11.7955 23.6099 11.6385 23.6243 11.4628H24.3848C24.3704 11.7394 24.2768 11.9972 24.1039 12.2363C23.9339 12.4725 23.7107 12.6641 23.4341 12.811C23.1576 12.9551 22.8536 13.0271 22.5224 13.0271C22.1709 13.0271 21.8641 12.9651 21.6019 12.8413C21.3427 12.7174 21.1266 12.5474 20.9538 12.3314C20.7838 12.1153 20.6556 11.8676 20.5692 11.5881C20.4856 11.3058 20.4439 11.0077 20.4439 10.6937V10.5122C20.4439 10.1982 20.4856 9.90144 20.5692 9.622C20.6556 9.33969 20.7838 9.0905 20.9538 8.87444C21.1266 8.65838 21.3427 8.48842 21.6019 8.36454C21.8641 8.24067 22.1709 8.17873 22.5224 8.17873C22.8882 8.17873 23.208 8.25363 23.4817 8.40343C23.7553 8.55035 23.9699 8.75201 24.1255 9.0084C24.284 9.26191 24.3704 9.54998 24.3848 9.87263H23.6243C23.6099 9.67962 23.5551 9.50533 23.4601 9.34977C23.3679 9.19421 23.2411 9.07033 23.0798 8.97815C22.9213 8.88308 22.7355 8.83555 22.5224 8.83555C22.2775 8.83555 22.0715 8.88452 21.9044 8.98247C21.7402 9.07754 21.6092 9.20717 21.5112 9.37138C21.4161 9.5327 21.347 9.71275 21.3038 9.91152C21.2635 10.1074 21.2433 10.3076 21.2433 10.5122V10.6937C21.2433 10.8982 21.2635 11.0998 21.3038 11.2986C21.3441 11.4974 21.4118 11.6774 21.5069 11.8388C21.6048 12.0001 21.7359 12.1297 21.9001 12.2277C22.0672 12.3227 22.2746 12.3703 22.5224 12.3703ZM26.1858 6.30335V12.9407H25.3821V6.30335H26.1858ZM29.0421 8.26516L27.0025 10.4473L25.8617 11.6313L25.7969 10.7801L26.6136 9.80349L28.0655 8.26516H29.0421ZM28.3118 12.9407L26.6439 10.7109L27.0587 9.99794L29.2538 12.9407H28.3118ZM36.1789 10.94H37.0085C36.9653 11.3375 36.8515 11.6933 36.6672 12.0073C36.4828 12.3213 36.2221 12.5705 35.885 12.7548C35.548 12.9363 35.1274 13.0271 34.6233 13.0271C34.2545 13.0271 33.9189 12.9579 33.6164 12.8197C33.3168 12.6814 33.059 12.4855 32.8429 12.232C32.6269 11.9756 32.4598 11.6688 32.3417 11.3116C32.2265 10.9515 32.1688 10.5511 32.1688 10.1103V9.48373C32.1688 9.04297 32.2265 8.64398 32.3417 8.28676C32.4598 7.92667 32.6283 7.61842 32.8473 7.36203C33.0691 7.10564 33.3356 6.90831 33.6467 6.77003C33.9578 6.63176 34.3078 6.56262 34.6967 6.56262C35.172 6.56262 35.5739 6.65192 35.9023 6.83053C36.2307 7.00914 36.4857 7.25688 36.6672 7.57377C36.8515 7.88777 36.9653 8.25219 37.0085 8.66703H36.1789C36.1385 8.37319 36.0636 8.12112 35.9542 7.91082C35.8447 7.69764 35.6891 7.53344 35.4875 7.41821C35.2858 7.30298 35.0222 7.24536 34.6967 7.24536C34.4173 7.24536 34.171 7.29866 33.9578 7.40524C33.7475 7.51183 33.5703 7.66307 33.4263 7.85897C33.2851 8.05486 33.1785 8.28964 33.1065 8.56332C33.0345 8.83699 32.9985 9.14091 32.9985 9.47508V10.1103C32.9985 10.4185 33.0302 10.7081 33.0936 10.9788C33.1598 11.2496 33.2592 11.4873 33.3917 11.6918C33.5242 11.8964 33.6928 12.0577 33.8973 12.1758C34.1018 12.291 34.3438 12.3487 34.6233 12.3487C34.9776 12.3487 35.2599 12.2925 35.4702 12.1801C35.6805 12.0678 35.8389 11.9065 35.9455 11.6962C36.055 11.4859 36.1328 11.2338 36.1789 10.94ZM38.9219 6.30335V12.9407H38.1225V6.30335H38.9219ZM38.7318 10.4257L38.3991 10.4128C38.4019 10.093 38.4495 9.79773 38.5417 9.52694C38.6338 9.25326 38.7635 9.0156 38.9306 8.81394C39.0977 8.61229 39.2964 8.45673 39.5269 8.34726C39.7602 8.23491 40.0181 8.17873 40.3004 8.17873C40.5308 8.17873 40.7383 8.21042 40.9226 8.2738C41.107 8.3343 41.264 8.43224 41.3936 8.56764C41.5261 8.70303 41.627 8.87876 41.6961 9.09482C41.7653 9.308 41.7998 9.56871 41.7998 9.87695V12.9407H40.9961V9.86831C40.9961 9.62344 40.9601 9.42755 40.8881 9.28063C40.816 9.13083 40.7109 9.0228 40.5726 8.95654C40.4343 8.8874 40.2644 8.85284 40.0627 8.85284C39.8639 8.85284 39.6825 8.89461 39.5182 8.97815C39.3569 9.06169 39.2172 9.17692 39.0991 9.32384C38.9839 9.47076 38.8931 9.63929 38.8269 9.82942C38.7635 10.0167 38.7318 10.2154 38.7318 10.4257ZM45.0355 13.0271C44.71 13.0271 44.4147 12.9723 44.1496 12.8629C43.8875 12.7505 43.6613 12.5935 43.4712 12.3919C43.284 12.1902 43.1399 11.9511 43.0391 11.6746C42.9383 11.398 42.8879 11.0955 42.8879 10.7671V10.5856C42.8879 10.2054 42.944 9.86687 43.0564 9.57015C43.1687 9.27055 43.3214 9.01704 43.5144 8.80962C43.7074 8.60221 43.9264 8.44521 44.1712 8.33862C44.4161 8.23203 44.6696 8.17873 44.9318 8.17873C45.2659 8.17873 45.554 8.23635 45.796 8.35158C46.0409 8.46681 46.2411 8.62813 46.3966 8.83555C46.5522 9.04009 46.6674 9.28207 46.7423 9.56151C46.8172 9.83806 46.8547 10.1405 46.8547 10.469V10.8276H43.3632V10.1751H46.0553V10.1146C46.0438 9.9072 46.0005 9.70555 45.9256 9.50965C45.8536 9.31376 45.7384 9.15244 45.5799 9.02568C45.4215 8.89893 45.2054 8.83555 44.9318 8.83555C44.7503 8.83555 44.5832 8.87444 44.4305 8.95222C44.2778 9.02712 44.1468 9.13947 44.0373 9.28927C43.9278 9.43907 43.8428 9.622 43.7823 9.83806C43.7218 10.0541 43.6916 10.3033 43.6916 10.5856V10.7671C43.6916 10.9889 43.7218 11.1978 43.7823 11.3937C43.8457 11.5867 43.9365 11.7567 44.0546 11.9036C44.1756 12.0505 44.321 12.1657 44.491 12.2493C44.6639 12.3328 44.8598 12.3746 45.0787 12.3746C45.361 12.3746 45.6001 12.317 45.796 12.2017C45.9919 12.0865 46.1633 11.9324 46.3102 11.7394L46.7942 12.124C46.6934 12.2766 46.5652 12.4221 46.4096 12.5604C46.254 12.6987 46.0625 12.811 45.8349 12.8974C45.6102 12.9839 45.3437 13.0271 45.0355 13.0271ZM49.7576 12.3703C49.9478 12.3703 50.1235 12.3314 50.2848 12.2536C50.4461 12.1758 50.5786 12.0692 50.6824 11.9338C50.7861 11.7955 50.8451 11.6385 50.8595 11.4628H51.62C51.6056 11.7394 51.512 11.9972 51.3392 12.2363C51.1692 12.4725 50.9459 12.6641 50.6694 12.811C50.3928 12.9551 50.0889 13.0271 49.7576 13.0271C49.4062 13.0271 49.0994 12.9651 48.8372 12.8413C48.5779 12.7174 48.3619 12.5474 48.189 12.3314C48.0191 12.1153 47.8909 11.8676 47.8045 11.5881C47.7209 11.3058 47.6791 11.0077 47.6791 10.6937V10.5122C47.6791 10.1982 47.7209 9.90144 47.8045 9.622C47.8909 9.33969 48.0191 9.0905 48.189 8.87444C48.3619 8.65838 48.5779 8.48842 48.8372 8.36454C49.0994 8.24067 49.4062 8.17873 49.7576 8.17873C50.1235 8.17873 50.4432 8.25363 50.7169 8.40343C50.9906 8.55035 51.2052 8.75201 51.3608 9.0084C51.5192 9.26191 51.6056 9.54998 51.62 9.87263H50.8595C50.8451 9.67962 50.7904 9.50533 50.6953 9.34977C50.6031 9.19421 50.4764 9.07033 50.3151 8.97815C50.1566 8.88308 49.9708 8.83555 49.7576 8.83555C49.5128 8.83555 49.3068 8.88452 49.1397 8.98247C48.9755 9.07754 48.8444 9.20717 48.7465 9.37138C48.6514 9.5327 48.5823 9.71275 48.5391 9.91152C48.4987 10.1074 48.4786 10.3076 48.4786 10.5122V10.6937C48.4786 10.8982 48.4987 11.0998 48.5391 11.2986C48.5794 11.4974 48.6471 11.6774 48.7421 11.8388C48.8401 12.0001 48.9712 12.1297 49.1354 12.2277C49.3025 12.3227 49.5099 12.3703 49.7576 12.3703ZM53.4211 6.30335V12.9407H52.6173V6.30335H53.4211ZM56.2774 8.26516L54.2378 10.4473L53.097 11.6313L53.0322 10.7801L53.8489 9.80349L55.3008 8.26516H56.2774ZM55.5471 12.9407L53.8791 10.7109L54.2939 9.99794L56.4891 12.9407H55.5471ZM58.0698 8.26516V12.9407H57.266V8.26516H58.0698ZM57.2055 7.02498C57.2055 6.89535 57.2444 6.78588 57.3222 6.69657C57.4029 6.60727 57.521 6.56262 57.6765 6.56262C57.8292 6.56262 57.9459 6.60727 58.0265 6.69657C58.1101 6.78588 58.1519 6.89535 58.1519 7.02498C58.1519 7.14886 58.1101 7.25544 58.0265 7.34475C57.9459 7.43117 57.8292 7.47438 57.6765 7.47438C57.521 7.47438 57.4029 7.43117 57.3222 7.34475C57.2444 7.25544 57.2055 7.14886 57.2055 7.02498ZM60.2511 9.26335V12.9407H59.4516V8.26516H60.2078L60.2511 9.26335ZM60.0609 10.4257L59.7282 10.4128C59.7311 10.093 59.7786 9.79773 59.8708 9.52694C59.963 9.25326 60.0926 9.0156 60.2597 8.81394C60.4268 8.61229 60.6256 8.45673 60.856 8.34726C61.0894 8.23491 61.3472 8.17873 61.6295 8.17873C61.86 8.17873 62.0674 8.21042 62.2518 8.2738C62.4361 8.3343 62.5931 8.43224 62.7228 8.56764C62.8553 8.70303 62.9561 8.87876 63.0252 9.09482C63.0944 9.308 63.1289 9.56871 63.1289 9.87695V12.9407H62.3252V9.86831C62.3252 9.62344 62.2892 9.42755 62.2172 9.28063C62.1452 9.13083 62.04 9.0228 61.9017 8.95654C61.7635 8.8874 61.5935 8.85284 61.3918 8.85284C61.1931 8.85284 61.0116 8.89461 60.8474 8.97815C60.686 9.06169 60.5463 9.17692 60.4282 9.32384C60.313 9.47076 60.2222 9.63929 60.156 9.82942C60.0926 10.0167 60.0609 10.2154 60.0609 10.4257Z" fill="#BAC4E7"/>
    <rect x="0.961953" y="1.43559" width="69.5243" height="17.8599" rx="8.92994" stroke="#E6EBFF" stroke-width="0.959062"/>
    </svg>
    