<svg width="36" height="17" viewBox="0 0 36 17" fill="none" xmlns="http://www.w3.org/2000/svg">
    <path d="M7.90117 7.91429C7.27639 7.7347 6.82109 7.51464 6.53526 7.2541C6.25196 6.99104 6.11031 6.66727 6.11031 6.28279C6.11031 5.84772 6.28358 5.48854 6.63011 5.20524C6.97918 4.91941 7.43195 4.77649 7.98844 4.77649C8.36785 4.77649 8.70554 4.84985 9.00149 4.99656C9.29996 5.14326 9.53014 5.34562 9.69203 5.60363C9.85644 5.86163 9.93865 6.14367 9.93865 6.44973H9.20637C9.20637 6.11584 9.10013 5.85404 8.88766 5.66433C8.67518 5.47209 8.37544 5.37598 7.98844 5.37598C7.62925 5.37598 7.34848 5.45565 7.14612 5.61501C6.9463 5.77184 6.84638 5.99063 6.84638 6.27141C6.84638 6.49653 6.94124 6.6875 7.13095 6.84433C7.32319 6.99863 7.64822 7.14028 8.10606 7.26928C8.56642 7.39828 8.9256 7.5412 9.18361 7.69802C9.44414 7.85232 9.63638 8.03318 9.76032 8.24059C9.8868 8.44801 9.95003 8.6921 9.95003 8.97287C9.95003 9.42059 9.7755 9.77977 9.42644 10.0504C9.07737 10.3185 8.61068 10.4526 8.02638 10.4526C7.64696 10.4526 7.29283 10.3805 6.964 10.2363C6.63517 10.0896 6.38096 9.8898 6.20137 9.63686C6.02431 9.38391 5.93578 9.09682 5.93578 8.77557H6.66806C6.66806 9.10946 6.79073 9.37379 7.03609 9.56856C7.28398 9.7608 7.61407 9.85692 8.02638 9.85692C8.41086 9.85692 8.70554 9.77851 8.91042 9.62168C9.11531 9.46485 9.21775 9.25111 9.21775 8.98046C9.21775 8.70981 9.1229 8.50113 8.93319 8.35442C8.74348 8.20518 8.39947 8.05847 7.90117 7.91429ZM11.5656 6.76844C11.8767 6.3865 12.2814 6.19552 12.7797 6.19552C13.6473 6.19552 14.0849 6.68497 14.0925 7.66387V10.3767H13.3906V7.66008C13.3881 7.36413 13.3198 7.14533 13.1857 7.00368C13.0542 6.86204 12.848 6.79121 12.5672 6.79121C12.3396 6.79121 12.1398 6.85192 11.9678 6.97333C11.7958 7.09475 11.6617 7.2541 11.5656 7.4514V10.3767H10.8636V4.54884H11.5656V6.76844ZM17.7645 10.3767C17.724 10.2958 17.6912 10.1516 17.6659 9.94419C17.3396 10.2831 16.95 10.4526 16.4972 10.4526C16.0925 10.4526 15.7599 10.3388 15.4994 10.1111C15.2414 9.88095 15.1124 9.59006 15.1124 9.23847C15.1124 8.81099 15.2742 8.47963 15.598 8.24439C15.9243 8.00662 16.3822 7.88773 16.9715 7.88773H17.6545V7.56523C17.6545 7.31987 17.5811 7.1251 17.4344 6.98092C17.2877 6.83421 17.0714 6.76086 16.7856 6.76086C16.5352 6.76086 16.3252 6.82409 16.1558 6.95057C15.9863 7.07704 15.9016 7.23007 15.9016 7.40966H15.1958C15.1958 7.20478 15.2679 7.00748 15.4121 6.81777C15.5588 6.62553 15.7561 6.47376 16.004 6.36247C16.2544 6.25117 16.5289 6.19552 16.8273 6.19552C17.3003 6.19552 17.6709 6.31441 17.939 6.55218C18.2072 6.78742 18.3463 7.11245 18.3564 7.52728V9.41679C18.3564 9.79368 18.4045 10.0934 18.5006 10.316V10.3767H17.7645ZM16.5997 9.84174C16.8198 9.84174 17.0284 9.78483 17.2257 9.671C17.423 9.55718 17.5659 9.4092 17.6545 9.22708V8.38477H17.1043C16.2443 8.38477 15.8143 8.63645 15.8143 9.13982C15.8143 9.35988 15.8876 9.53188 16.0344 9.65583C16.1811 9.77977 16.3695 9.84174 16.5997 9.84174ZM21.5276 6.90124C21.4213 6.88354 21.3062 6.87468 21.1823 6.87468C20.7219 6.87468 20.4095 7.07072 20.2451 7.46278V10.3767H19.5432V6.27141H20.2262L20.2375 6.74568C20.4677 6.37891 20.794 6.19552 21.2164 6.19552C21.353 6.19552 21.4567 6.21323 21.5276 6.24864V6.90124ZM23.8906 10.4526C23.3341 10.4526 22.8813 10.2705 22.5322 9.90624C22.1832 9.53947 22.0086 9.05002 22.0086 8.43789V8.30889C22.0086 7.90164 22.0858 7.53867 22.2401 7.21995C22.3969 6.89871 22.6144 6.6483 22.8927 6.4687C23.1735 6.28658 23.477 6.19552 23.8033 6.19552C24.337 6.19552 24.7518 6.37132 25.0478 6.72291C25.3437 7.07451 25.4917 7.57787 25.4917 8.233V8.52516H22.7106C22.7207 8.92987 22.8383 9.25744 23.0634 9.50785C23.2911 9.75574 23.5794 9.87968 23.9285 9.87968C24.1764 9.87968 24.3863 9.8291 24.5583 9.72792C24.7303 9.62674 24.8808 9.49268 25.0098 9.32573L25.4386 9.65962C25.0946 10.1883 24.5786 10.4526 23.8906 10.4526ZM23.8033 6.77224C23.52 6.77224 23.2822 6.87595 23.09 7.08336C22.8977 7.28825 22.7789 7.57661 22.7333 7.94844H24.7898V7.89532C24.7695 7.53867 24.6734 7.26295 24.5014 7.06819C24.3294 6.87089 24.0967 6.77224 23.8033 6.77224ZM26.2232 8.28992C26.2232 7.66008 26.3724 7.15419 26.6709 6.77224C26.9694 6.38776 27.3602 6.19552 27.8433 6.19552C28.3239 6.19552 28.7046 6.35994 28.9854 6.68877V4.54884H29.6873V10.3767H29.0423L29.0081 9.9366C28.7274 10.2806 28.3366 10.4526 27.8357 10.4526C27.3602 10.4526 26.9719 10.2578 26.6709 9.8683C26.3724 9.47876 26.2232 8.97034 26.2232 8.34304V8.28992ZM26.9251 8.3696C26.9251 8.83502 27.0212 9.19926 27.2135 9.46232C27.4057 9.72539 27.6713 9.85692 28.0103 9.85692C28.4555 9.85692 28.7805 9.65709 28.9854 9.25744V7.37172C28.7754 6.98471 28.4529 6.79121 28.0179 6.79121C27.6739 6.79121 27.4057 6.92401 27.2135 7.1896C27.0212 7.45519 26.9251 7.84853 26.9251 8.3696Z" fill="#BAC4E7"/>
    <rect x="0.421052" y="0.421052" width="35.1579" height="15.8408" rx="7.92041" stroke="#E6EBFF" stroke-width="0.842103"/>
    </svg>
    